<svg version="1.1" id="Layer_1" xmlns="http://www.w3.org/2000/svg" xmlns:xlink="http://www.w3.org/1999/xlink" x="0px" y="0px"
	 viewBox="0 0 74 74" style="enable-background:new 0 0 74 74;" xml:space="preserve">
<style type="text/css">
	.st0{fill:#CCCCCC;}
	.st1{fill:#FFFFFF;}
	.st2{fill:#666666;}
</style>
<g>
	<path class="st0" d="M37,71.5c-9.6,0-17.8-3.4-24.4-10.1C5.8,54.4,2.5,46.5,2.5,37c0-9.6,3.4-17.8,10.1-24.4
		C19.2,5.9,27.4,2.5,37,2.5c9.6,0,17.8,3.4,24.4,10.1c6.8,6.9,10.1,14.9,10.1,24.4c0,9.6-3.4,17.8-10.1,24.4
		C54.4,68.2,46.5,71.5,37,71.5z"/>
	<path class="st1" d="M37,5c8.9,0,16.4,3.1,22.6,9.4C65.8,20.7,69,28.1,69,37s-3.1,16.4-9.4,22.6C53.3,65.8,45.9,69,37,69
		s-16.4-3.1-22.6-9.4S5,45.9,5,37s3.1-16.4,9.4-22.6C20.6,8.1,28.1,5,37,5 M37,0C26.8,0,18,3.7,10.9,10.9C3.7,18,0,26.8,0,37
		c0,10,3.6,18.8,10.8,26.1C17.9,70.3,26.8,74,37,74c10,0,18.8-3.6,26.1-10.8C70.3,56.1,74,47.2,74,37c0-10-3.6-18.8-10.8-26.1
		C56.1,3.7,47.2,0,37,0L37,0z"/>
</g>
<path class="st2" d="M52.4,47.7L41.7,37l10.9-10.7c0.6-0.6,0.6-1.1,0-1.7l-3.1-3c-0.3-0.3-0.6-0.4-0.9-0.4c-0.2,0-0.4,0.1-0.7,0.4
	L37,32.1L26.1,21.6c-0.3-0.3-0.5-0.4-0.7-0.4c-0.3,0-0.6,0.1-0.9,0.4l-3,3c-0.6,0.6-0.6,1.1,0,1.7L32.4,37L21.6,47.9
	c-0.2,0.1-0.3,0.3-0.3,0.7s0.1,0.7,0.3,0.9l3,3.1c0.2,0.2,0.5,0.3,0.9,0.3s0.7-0.1,0.9-0.3L37,41.7l10.9,10.7
	c0.3,0.3,0.5,0.4,0.7,0.4c0.3,0,0.6-0.1,0.9-0.4l3-3c0.3-0.2,0.4-0.5,0.4-0.9C52.9,48.3,52.7,48,52.4,47.7z"/>
</svg>