<svg xmlns="http://www.w3.org/2000/svg" viewBox="0 0 273.3 97"><path d="M50.8 32.4c0 6.6-1.7 11.8-5 15.6-3.4 3.8-8 5.7-14 5.7-6.1 0-10.8-1.9-14.1-5.6-3.3-3.7-5-9-5-15.8 0-6.7 1.7-12 5-15.7s8-5.6 14.2-5.6c5.9 0 10.6 1.9 13.9 5.7 3.3 3.9 5 9.1 5 15.7zm-33 0c0 5.6 1.2 9.9 3.6 12.8 2.4 2.9 5.9 4.3 10.4 4.3 4.6 0 8.1-1.4 10.4-4.3s3.5-7.1 3.5-12.8c0-5.6-1.2-9.8-3.5-12.7-2.3-2.9-5.8-4.3-10.4-4.3-4.6 0-8.1 1.4-10.5 4.3-2.3 3-3.5 7.2-3.5 12.7zm62.7 20.8V33.1c0-2.5-.6-4.4-1.7-5.7s-3-1.9-5.4-1.9c-3.2 0-5.6.9-7.1 2.6S64 32.8 64 36.9v16.3h-4.7v-31h3.8l.8 4.2h.2c1-1.5 2.3-2.7 4-3.6 1.7-.8 3.7-1.3 5.8-1.3 3.7 0 6.6.9 8.4 2.7 1.9 1.8 2.8 4.7 2.8 8.7v20.2h-4.6zm27.5.5c-4.6 0-8.2-1.4-10.9-4.2-2.7-2.8-4-6.7-4-11.6 0-5 1.2-9 3.7-11.9 2.5-2.9 5.8-4.4 9.9-4.4 3.9 0 7 1.3 9.2 3.8 2.3 2.6 3.4 5.9 3.4 10.1v3H98c.1 3.6 1 6.4 2.8 8.3 1.7 1.9 4.2 2.8 7.4 2.8 3.3 0 6.6-.7 9.9-2.1v4.2c-1.7.7-3.2 1.2-4.7 1.5-1.5.4-3.3.5-5.4.5zm-1.3-28.2c-2.5 0-4.5.8-6 2.4-1.5 1.6-2.4 3.9-2.6 6.7h16.2c0-3-.7-5.2-2-6.8-1.2-1.5-3.1-2.3-5.6-2.3zm34.2 27.7h-4.8V16H123v-4.3h31V16h-13.1v37.2zm32.8-31.6c1.4 0 2.6.1 3.7.3l-.7 4.4c-1.3-.3-2.4-.4-3.4-.4-2.5 0-4.7 1-6.4 3.1-1.8 2-2.7 4.6-2.7 7.6v16.7h-4.7v-31h3.9l.5 5.7h.2c1.2-2 2.5-3.6 4.2-4.7 1.6-1.2 3.4-1.7 5.4-1.7zm13.9.5v20.1c0 2.5.6 4.4 1.7 5.7 1.2 1.2 3 1.9 5.4 1.9 3.2 0 5.6-.9 7.1-2.7 1.5-1.8 2.3-4.7 2.3-8.7V22.1h4.7v31h-3.9l-.7-4.2h-.2c-1 1.5-2.3 2.7-4 3.5-1.7.8-3.7 1.2-5.8 1.2-3.8 0-6.6-.9-8.5-2.7-1.9-1.8-2.8-4.7-2.8-8.6V22.1h4.7zm51.2 22.6c0 2.9-1.1 5.1-3.2 6.7-2.2 1.6-5.2 2.4-9.1 2.4-4.1 0-7.3-.7-9.6-2v-4.4c1.5.8 3.1 1.4 4.8 1.8 1.7.4 3.4.7 4.9.7 2.5 0 4.3-.4 5.7-1.2 1.3-.8 2-2 2-3.6 0-1.2-.5-2.2-1.6-3.1-1-.9-3.1-1.9-6.1-3-2.9-1.1-4.9-2-6.2-2.8-1.2-.8-2.1-1.7-2.7-2.7-.6-1-.9-2.2-.9-3.7 0-2.5 1-4.5 3.1-6s4.9-2.2 8.5-2.2c3.3 0 6.6.7 9.8 2l-1.7 3.8c-3.1-1.3-5.9-1.9-8.5-1.9-2.2 0-3.9.3-5 1s-1.7 1.7-1.7 2.9c0 .8.2 1.5.6 2.1.4.6 1.1 1.1 2.1 1.7.9.5 2.8 1.3 5.4 2.3 3.7 1.3 6.2 2.7 7.5 4 1.3 1.4 1.9 3.1 1.9 5.2zm17.7 5.2c.8 0 1.6-.1 2.4-.2.8-.1 1.4-.2 1.8-.4v3.6c-.5.2-1.3.4-2.3.6-1 .2-1.9.2-2.7.2-6 0-9-3.2-9-9.5V25.8h-4.4v-2.3l4.4-2 2-6.6h2.7v7.2h9v3.7h-9v18.3c0 1.9.4 3.3 1.3 4.3 1 1 2.2 1.5 3.8 1.5zM24.6 73.5c0 1.2-.4 2-1.2 2.7-.8.6-1.9.9-3.4.9h-1.3v4.5h-1.3V70.2h3c2.8 0 4.2 1.1 4.2 3.3zM18.7 76h1.2c1.2 0 2-.2 2.6-.6.5-.4.8-1 .8-1.8s-.2-1.3-.7-1.7c-.5-.4-1.3-.6-2.3-.6h-1.5V76zm12.7-3.1c.4 0 .7 0 1 .1l-.2 1.2c-.4-.1-.7-.1-.9-.1-.7 0-1.3.3-1.8.8s-.7 1.3-.7 2.1v4.6h-1.3V73h1.1l.1 1.6h.1c.3-.6.7-1 1.1-1.3.5-.3 1-.4 1.5-.4zm3.2-2.2c0-.3.1-.5.2-.7.1-.1.3-.2.5-.2s.4.1.5.2.2.4.2.6c0 .3-.1.5-.2.7-.2.1-.3.2-.5.2s-.4-.1-.5-.2c-.1-.1-.2-.3-.2-.6zm1.5 10.9h-1.3V73h1.3v8.6zm5.3 0L38.1 73h1.4l1.8 5.1c.4 1.2.7 2 .7 2.3h.1c.1-.3.2-.8.5-1.7s1-2.8 2.1-5.7h1.4l-3.2 8.6h-1.5zm12.1 0l-.3-1.2h-.1c-.4.5-.9.9-1.3 1.1-.4.2-1 .3-1.6.3-.8 0-1.5-.2-2-.7s-.7-1.1-.7-1.9c0-1.7 1.4-2.6 4.1-2.7h1.5V76c0-.7-.1-1.2-.4-1.5s-.7-.5-1.3-.5c-.7 0-1.5.2-2.4.7l-.4-1c.4-.2.9-.4 1.4-.5.5-.1 1-.2 1.5-.2 1 0 1.8.2 2.3.7s.7 1.2.7 2.2v5.8h-1zm-2.9-.9c.8 0 1.4-.2 1.9-.7.5-.4.7-1.1.7-1.9v-.8l-1.3.1c-1 0-1.8.2-2.2.5-.5.3-.7.7-.7 1.3 0 .5.1.8.4 1.1.3.3.7.4 1.2.4zm10.7 1c-1.2 0-2.2-.4-2.9-1.1-.7-.8-1-1.8-1-3.2 0-1.4.3-2.5 1-3.3s1.7-1.2 2.9-1.2c.4 0 .8 0 1.2.1.4.1.7.2 1 .3l-.4 1.1-.9-.3c-.3-.1-.6-.1-.9-.1-1.7 0-2.6 1.1-2.6 3.3 0 1.1.2 1.9.6 2.4s1.1.8 1.9.8c.7 0 1.4-.2 2.2-.5v1.1c-.5.5-1.2.6-2.1.6zm3.6-8.7h1.4l1.9 4.9c.4 1.1.7 1.9.8 2.4h.1c.1-.3.2-.7.4-1.4.2-.6.9-2.6 2.1-5.9H73l-3.7 9.8c-.4 1-.8 1.6-1.3 2.1s-1.1.6-1.8.6c-.4 0-.8 0-1.2-.1v-1c.3.1.6.1 1 .1.9 0 1.5-.5 1.9-1.5l.5-1.2-3.5-8.8zm20.2 8.6l-3.9-10.1h-.1c.1.8.1 1.8.1 2.9v7.3H80V70.2h2l3.6 9.4h.1l3.6-9.4h2v11.4H90v-7.4c0-.8 0-1.8.1-2.8H90l-3.9 10.1h-1zm15.2 0l-.3-1.2c-.4.5-.9.9-1.3 1.1-.4.2-1 .3-1.6.3-.8 0-1.5-.2-2-.7s-.7-1.1-.7-1.9c0-1.7 1.4-2.6 4.1-2.7h1.5V76c0-.7-.1-1.2-.4-1.5s-.8-.5-1.4-.5c-.7 0-1.5.2-2.4.7l-.4-1c.4-.2.9-.4 1.4-.5.5-.1 1-.2 1.5-.2 1 0 1.8.2 2.3.7s.7 1.2.7 2.2v5.8h-1zm-2.9-.9c.8 0 1.4-.2 1.9-.7.5-.4.7-1.1.7-1.9v-.8l-1.3.1c-1 0-1.8.2-2.2.5-.5.3-.7.7-.7 1.3 0 .5.1.8.4 1.1.3.3.7.4 1.2.4zm13.1.9v-5.5c0-.7-.2-1.2-.5-1.6s-.8-.5-1.5-.5c-.9 0-1.6.2-2 .7s-.5 1.3-.5 2.4v4.5h-1.3V73h1.1l.2 1.2h.1c.3-.4.6-.7 1.1-1 .5-.2 1-.3 1.6-.3 1 0 1.8.2 2.3.7.5.5.8 1.3.8 2.4v5.6h-1.4zm10 0l-.3-1.2h-.1c-.4.5-.9.9-1.3 1.1-.4.2-1 .3-1.6.3-.8 0-1.5-.2-2-.7s-.7-1.1-.7-1.9c0-1.7 1.4-2.6 4.1-2.7h1.5V76c0-.7-.1-1.2-.4-1.5s-.7-.5-1.4-.5-1.5.2-2.4.7l-.4-1c.4-.2.9-.4 1.4-.5.5-.1 1-.2 1.5-.2 1 0 1.8.2 2.3.7s.7 1.2.7 2.2v5.8h-.9zm-3-.9c.8 0 1.4-.2 1.9-.7.5-.4.7-1.1.7-1.9v-.8l-1.3.1c-1 0-1.8.2-2.2.5-.5.3-.7.7-.7 1.3 0 .5.1.8.4 1.1.3.3.7.4 1.2.4zm14.3-7.7v.8l-1.6.2c.1.2.3.4.4.7.1.3.2.6.2 1 0 .8-.3 1.5-.9 2s-1.4.8-2.4.8c-.3 0-.5 0-.7-.1-.6.3-.8.7-.8 1.1 0 .2.1.4.3.5.2.1.5.2 1 .2h1.5c.9 0 1.6.2 2.1.6s.7 1 .7 1.7c0 .9-.4 1.7-1.1 2.2s-1.9.7-3.3.7c-1.1 0-2-.2-2.6-.6s-.9-1-.9-1.8c0-.5.2-1 .5-1.4s.8-.6 1.4-.8c-.2-.1-.4-.3-.6-.5-.1-.2-.2-.5-.2-.7 0-.3.1-.6.2-.8s.4-.5.8-.7c-.4-.2-.8-.5-1.1-.9s-.4-.9-.4-1.5c0-.9.3-1.7.8-2.2s1.4-.8 2.4-.8c.4 0 .9.1 1.2.2h3.1zM125 83c0 .5.2.8.6 1.1s1 .4 1.7.4c1.1 0 1.9-.2 2.4-.5s.8-.8.8-1.3-.1-.8-.4-1-.8-.3-1.6-.3h-1.6c-.6 0-1 .1-1.4.4s-.5.7-.5 1.2zm.7-7.2c0 .6.2 1.1.5 1.4.3.3.8.5 1.4.5 1.3 0 1.9-.6 1.9-1.8 0-1.3-.6-1.9-1.9-1.9-.6 0-1.1.2-1.4.5s-.5.6-.5 1.3zm12.2 5.9c-1.3 0-2.3-.4-3-1.2-.7-.8-1.1-1.8-1.1-3.2 0-1.4.3-2.5 1-3.3s1.6-1.2 2.7-1.2 1.9.4 2.5 1.1c.6.7.9 1.6.9 2.8v.8H135c0 1 .3 1.8.8 2.3.5.5 1.2.8 2 .8.9 0 1.8-.2 2.7-.6v1.2c-.5.2-.9.3-1.3.4s-.7.1-1.3.1zm-.3-7.7c-.7 0-1.2.2-1.6.7-.4.4-.6 1.1-.7 1.9h4.5c0-.8-.2-1.4-.5-1.9-.5-.5-1.1-.7-1.7-.7zm17.3 7.6V76c0-.7-.1-1.2-.4-1.5-.3-.3-.7-.5-1.4-.5-.8 0-1.4.2-1.8.7-.4.5-.6 1.2-.6 2.1v4.8h-1.3V76c0-.7-.1-1.2-.4-1.5-.3-.3-.7-.5-1.4-.5-.8 0-1.4.2-1.8.7-.4.5-.6 1.3-.6 2.4v4.5H144V73h1.1l.2 1.2h.1c.2-.4.6-.7 1-1s.9-.4 1.5-.4c1.3 0 2.2.5 2.6 1.5h.1c.3-.4.6-.8 1.1-1.1.5-.3 1-.4 1.7-.4 1 0 1.7.2 2.2.7.5.5.7 1.3.7 2.4v5.6h-1.4zm8.3.1c-1.3 0-2.3-.4-3-1.2-.7-.8-1.1-1.8-1.1-3.2 0-1.4.3-2.5 1-3.3s1.6-1.2 2.7-1.2 1.9.4 2.5 1.1c.6.7.9 1.6.9 2.8v.8h-5.9c0 1 .3 1.8.8 2.3.5.5 1.2.8 2 .8.9 0 1.8-.2 2.7-.6v1.2c-.5.2-.9.3-1.3.4s-.7.1-1.3.1zm-.3-7.7c-.7 0-1.2.2-1.6.7-.4.4-.6 1.1-.7 1.9h4.5c0-.8-.2-1.4-.5-1.9-.5-.5-1.1-.7-1.7-.7zm12.3 7.6v-5.5c0-.7-.2-1.2-.5-1.6s-.8-.5-1.5-.5c-.9 0-1.6.2-2 .7s-.6 1.3-.6 2.4v4.5h-1.3V73h1.1l.2 1.2h.1c.3-.4.6-.7 1.1-1 .5-.2 1-.3 1.6-.3 1 0 1.8.2 2.3.7.5.5.8 1.3.8 2.4v5.6h-1.3zm7.4-.9c.2 0 .5 0 .7-.1.2 0 .4-.1.5-.1v1c-.1.1-.3.1-.6.2s-.5.1-.7.1c-1.7 0-2.5-.9-2.5-2.6V74h-1.2v-.6l1.2-.5.5-1.8h.8v2h2.5v1h-2.5v5c0 .5.1.9.4 1.2.1.2.5.4.9.4zm15.1-2.1c0 1-.4 1.8-1.1 2.4s-1.7.8-3 .8c-1.4 0-2.4-.2-3.1-.5V80c.5.2 1 .4 1.5.5.6.1 1.1.2 1.6.2.9 0 1.6-.2 2-.5s.7-.8.7-1.4c0-.4-.1-.7-.2-1-.2-.3-.4-.5-.8-.7-.4-.2-.9-.5-1.7-.7-1.1-.4-1.8-.8-2.3-1.4-.5-.5-.7-1.2-.7-2 0-.9.3-1.6 1-2.1s1.5-.8 2.6-.8 2.2.2 3.1.6l-.4 1.2c-.9-.4-1.9-.6-2.8-.6-.7 0-1.3.2-1.6.5-.4.3-.6.7-.6 1.3 0 .4.1.7.2 1 .1.3.4.5.7.7s.9.4 1.6.7c1.2.4 2 .9 2.5 1.4.6.2.8.9.8 1.7zm10.3-1.3c0 1.4-.4 2.5-1.1 3.3-.7.8-1.7 1.2-2.9 1.2-.8 0-1.4-.2-2-.5s-1.1-.9-1.4-1.5-.5-1.5-.5-2.4c0-1.4.3-2.5 1-3.3.7-.8 1.7-1.2 2.9-1.2s2.1.4 2.9 1.2 1.1 1.8 1.1 3.2zm-6.5 0c0 1.1.2 1.9.7 2.5.4.6 1.1.9 1.9.9s1.5-.3 1.9-.9.7-1.4.7-2.5-.2-1.9-.7-2.5c-.4-.6-1.1-.8-1.9-.8-.8 0-1.5.3-1.9.8-.5.6-.7 1.4-.7 2.5zm13.3-3.3h-2.2v7.6h-1.3V74h-1.5v-.6l1.5-.5v-.5c0-2.1.9-3.2 2.8-3.2.5 0 1 .1 1.6.3l-.3 1c-.5-.2-.9-.2-1.3-.2-.5 0-.9.2-1.1.5-.2.3-.4.8-.4 1.6v.6h2.2v1zm5.1 6.7c.2 0 .5 0 .7-.1.2 0 .4-.1.5-.1v1c-.1.1-.3.1-.6.2s-.5.1-.7.1c-1.7 0-2.5-.9-2.5-2.6V74H216v-.6l1.2-.5.5-1.8h.8v2h2.5v1h-2.5v5c0 .5.1.9.4 1.2.2.2.5.4 1 .4zm10.6.9l-1.6-5c-.1-.3-.3-1-.6-2.1h-.1c-.2.9-.4 1.6-.5 2.1l-1.6 5h-1.5l-2.3-8.6h1.4c.6 2.2 1 3.8 1.3 4.9s.5 1.9.5 2.3h.1c.1-.3.1-.7.3-1.2.1-.5.2-.8.3-1.1l1.6-4.9h1.4l1.5 4.9c.3.9.5 1.6.6 2.3h.1c0-.2.1-.5.2-.9s.6-2.5 1.6-6.3h1.3l-2.4 8.6h-1.6zm11.4 0l-.3-1.2h-.1c-.4.5-.9.9-1.3 1.1-.4.2-1 .3-1.6.3-.8 0-1.5-.2-2-.7s-.6-1.1-.6-1.9c0-1.7 1.4-2.6 4.1-2.7h1.5V76c0-.7-.1-1.2-.4-1.5s-.8-.5-1.4-.5c-.7 0-1.5.2-2.4.7l-.4-1c.4-.2.9-.4 1.4-.5.5-.1 1-.2 1.5-.2 1 0 1.8.2 2.3.7s.7 1.2.7 2.2v5.8h-1zm-2.9-.9c.8 0 1.4-.2 1.9-.7.5-.4.7-1.1.7-1.9v-.8l-1.3.1c-1 0-1.8.2-2.2.5-.5.3-.7.7-.7 1.3 0 .5.1.8.4 1.1.3.3.7.4 1.2.4zm11.2-7.8c.4 0 .7 0 1 .1l-.2 1.2c-.4-.1-.7-.1-.9-.1-.7 0-1.3.3-1.8.8s-.7 1.3-.7 2.1v4.6h-1.3V73h1.1l.1 1.6h.1c.3-.6.7-1 1.1-1.3.4-.3.9-.4 1.5-.4zm6.9 8.8c-1.3 0-2.3-.4-3-1.2-.7-.8-1.1-1.8-1.1-3.2 0-1.4.3-2.5 1-3.3s1.6-1.2 2.7-1.2 1.9.4 2.5 1.1c.6.7.9 1.6.9 2.8v.8h-5.9c0 1 .3 1.8.8 2.3.5.5 1.2.8 2 .8.9 0 1.8-.2 2.7-.6v1.2c-.5.2-.9.3-1.3.4s-.7.1-1.3.1zm-.3-7.7c-.7 0-1.2.2-1.6.7-.4.4-.6 1.1-.7 1.9h4.5c0-.8-.2-1.4-.5-1.9-.5-.5-1-.7-1.7-.7z" fill="#fff"/></svg>