<svg xmlns="http://www.w3.org/2000/svg" width="24" height="24" viewBox="0 0 24 24">
  <g fill="none" fill-rule="evenodd">
    <path fill="#4A4A4A" d="M21,12 C21,16.971 16.971,21 12,21 C7.029,21 3,16.971 3,12 C3,7.029 7.029,3 12,3 C16.971,3 21,7.029 21,12"/>
    <g fill="#FFF" transform="translate(7.5 7.5)">
      <path d="M4.49858929,0.00283928571 C3.27683929,0.00283928571 3.12364286,0.00801785714 2.64382143,0.0299107143 C2.165,0.05175 1.83798214,0.127803571 1.55183929,0.239017857 C1.25601786,0.353964286 1.00514286,0.507785714 0.755035714,0.757875 C0.504946429,1.00798214 0.351125,1.25885714 0.236178571,1.55467857 C0.124964286,1.84082143 0.0489107143,2.16783929 0.0270714286,2.64666071 C0.00517857143,3.12648214 0,3.27967857 0,4.50142857 C0,5.72316071 0.00517857143,5.87635714 0.0270714286,6.35617857 C0.0489107143,6.835 0.124964286,7.16201786 0.236178571,7.44816071 C0.351125,7.74398214 0.504946429,7.99485714 0.755035714,8.24496429 C1.00514286,8.49505357 1.25601786,8.648875 1.55183929,8.76383929 C1.83798214,8.87503571 2.165,8.95108929 2.64382143,8.97292857 C3.12364286,8.99482143 3.27683929,9 4.49858929,9 C5.72032143,9 5.87351786,8.99482143 6.35333929,8.97292857 C6.83216071,8.95108929 7.15917857,8.87503571 7.44532143,8.76383929 C7.74114286,8.648875 7.99201786,8.49505357 8.242125,8.24496429 C8.49221429,7.99485714 8.64603571,7.74398214 8.761,7.44816071 C8.87219643,7.16201786 8.94825,6.835 8.97008929,6.35617857 C8.99198214,5.87635714 8.99716071,5.72316071 8.99716071,4.50142857 C8.99716071,3.27967857 8.99198214,3.12648214 8.97008929,2.64666071 C8.94825,2.16783929 8.87219643,1.84082143 8.761,1.55467857 C8.64603571,1.25885714 8.49221429,1.00798214 8.242125,0.757875 C7.99201786,0.507785714 7.74114286,0.353964286 7.44532143,0.239017857 C7.15917857,0.127803571 6.83216071,0.05175 6.35333929,0.0299107143 C5.87351786,0.00801785714 5.72032143,0.00283928571 4.49858929,0.00283928571 Z M4.49858929,0.813392857 C5.69975,0.813392857 5.84203571,0.817982143 6.31639286,0.839625 C6.755,0.859625 6.99319643,0.932910714 7.15171429,0.994517857 C7.36169643,1.076125 7.51155357,1.17360714 7.66896429,1.33103571 C7.82639286,1.48844643 7.923875,1.63830357 8.00548214,1.84828571 C8.06708929,2.00680357 8.140375,2.245 8.160375,2.68360714 C8.18201786,3.15796429 8.18660714,3.30025 8.18660714,4.50142857 C8.18660714,5.70258929 8.18201786,5.844875 8.160375,6.31923214 C8.140375,6.75783929 8.06708929,6.99603571 8.00548214,7.15455357 C7.923875,7.36453571 7.82639286,7.51439286 7.66896429,7.67180357 C7.51155357,7.82923214 7.36169643,7.92671429 7.15171429,8.00832143 C6.99319643,8.06992857 6.755,8.14321429 6.31639286,8.16321429 C5.84210714,8.18485714 5.69983929,8.18944643 4.49858929,8.18944643 C3.29732143,8.18944643 3.15507143,8.18485714 2.68076786,8.16321429 C2.24216071,8.14321429 2.00396429,8.06992857 1.84544643,8.00832143 C1.63546429,7.92671429 1.48560714,7.82923214 1.32819643,7.67180357 C1.17078571,7.51439286 1.07328571,7.36453571 0.991678571,7.15455357 C0.930071429,6.99603571 0.856785714,6.75783929 0.836785714,6.31923214 C0.815142857,5.844875 0.810553571,5.70258929 0.810553571,4.50142857 C0.810553571,3.30025 0.815142857,3.15796429 0.836785714,2.68360714 C0.856785714,2.245 0.930071429,2.00680357 0.991678571,1.84828571 C1.07328571,1.63830357 1.17076786,1.48844643 1.32819643,1.33103571 C1.48560714,1.17360714 1.63546429,1.076125 1.84544643,0.994517857 C2.00396429,0.932910714 2.24216071,0.859625 2.68076786,0.839625 C3.155125,0.817982143 3.29741071,0.813392857 4.49858929,0.813392857 Z"/>
      <path d="M4.49858929 6.00094643C3.67041071 6.00094643 2.99905357 5.32958929 2.99905357 4.50142857 2.99905357 3.67325 3.67041071 3.00189286 4.49858929 3.00189286 5.32675 3.00189286 5.99810714 3.67325 5.99810714 4.50142857 5.99810714 5.32958929 5.32675 6.00094643 4.49858929 6.00094643zM4.49858929 2.19133929C3.22275 2.19133929 2.1885 3.22558929 2.1885 4.50142857 2.1885 5.77725 3.22275 6.8115 4.49858929 6.8115 5.77441071 6.8115 6.80866071 5.77725 6.80866071 4.50142857 6.80866071 3.22558929 5.77441071 2.19133929 4.49858929 2.19133929zM7.43976786 2.10007143C7.43976786 2.39821429 7.19807143 2.63989286 6.89992857 2.63989286 6.60180357 2.63989286 6.36010714 2.39821429 6.36010714 2.10007143 6.36010714 1.80192857 6.60180357 1.56023214 6.89992857 1.56023214 7.19807143 1.56023214 7.43976786 1.80192857 7.43976786 2.10007143"/>
    </g>
  </g>
</svg>
