<svg xmlns="http://www.w3.org/2000/svg" width="24" height="24" viewBox="0 0 24 24">
  <g fill="none" fill-rule="evenodd" transform="translate(3 3)">
    <circle cx="9" cy="9" r="9" fill="#4A4A4A"/>
    <path fill="#FFF" d="M7.71028707,13.5064425 C11.262496,13.5064425 13.2050209,10.4424551 13.2050209,7.78560893 C13.2050209,7.69854356 13.2033265,7.6118702 13.1994861,7.52566726 C13.5765299,7.24189139 13.9043253,6.88778898 14.1629169,6.48460694 C13.8168605,6.64462532 13.4444855,6.75250641 13.0538494,6.80111562 C13.4525806,6.55226782 13.7586886,6.15837642 13.9030451,5.68890553 C13.5298418,5.91921127 13.11669,6.08671703 12.6768056,6.17691848 C12.3244237,5.78612395 11.8225269,5.54166667 11.2671648,5.54166667 C10.2005684,5.54166667 9.33567192,6.44215228 9.33567192,7.55220632 C9.33567192,7.71002944 9.35265282,7.86342286 9.38574864,8.01066173 C7.780771,7.92665404 6.35753795,7.12652292 5.40513902,5.90992063 C5.23913282,6.20698563 5.14361053,6.55226782 5.14361053,6.92048259 C5.14361053,7.61810316 5.48454639,8.23391129 6.0029722,8.59416825 C5.68624637,8.5840152 5.38860994,8.49338255 5.12832396,8.34261559 C5.12787214,8.3510046 5.12787214,8.35943281 5.12787214,8.36825303 C5.12787214,9.34216207 5.79366658,10.1551119 6.67723827,10.3394741 C6.51507253,10.3854176 6.34435987,10.4101927 6.16815007,10.4101927 C6.04374896,10.4101927 5.9227365,10.3973739 5.80511269,10.3739318 C6.05097808,11.1727692 6.76387475,11.7540805 7.60923,11.7704665 C6.94814202,12.3097543 6.11551303,12.6311239 5.21070581,12.6311239 C5.05486555,12.6311239 4.90117145,12.6218725 4.75,12.6032913 C5.60473051,13.1735479 6.61951826,13.5064425 7.71028707,13.5064425"/>
  </g>
</svg>
