<svg xmlns="http://www.w3.org/2000/svg" width="24" height="24" viewBox="0 0 24 24">
  <g fill="none" fill-rule="evenodd" transform="translate(3 3)">
    <path fill="#4A4A4A" d="M18,9 C18,13.971 13.971,18 9,18 C4.029,18 0,13.971 0,9 C0,4.029 4.029,0 9,0 C13.971,0 18,4.029 18,9"/>
    <path fill="#FFF" d="M13.9268,6.5093 C13.8078,6.0643 13.4598,5.7133 13.0178,5.5943 C12.2158,5.3783 8.9998,5.3783 8.9998,5.3783 C8.9998,5.3783 5.7838,5.3783 4.9828,5.5943 C4.5398,5.7133 4.1928,6.0643 4.0728,6.5093 C3.8588,7.3163 3.8588,9.0003 3.8588,9.0003 C3.8588,9.0003 3.8588,10.6843 4.0728,11.4903 C4.1928,11.9363 4.5398,12.2873 4.9828,12.4053 C5.7838,12.6223 8.9998,12.6223 8.9998,12.6223 C8.9998,12.6223 12.2158,12.6223 13.0178,12.4053 C13.4598,12.2873 13.8078,11.9363 13.9268,11.4903 C14.1418,10.6843 14.1418,9.0003 14.1418,9.0003 C14.1418,9.0003 14.1418,7.3163 13.9268,6.5093"/>
    <polygon fill="#4A4A4A" points="7.948 10.529 10.636 9 7.948 7.471"/>
  </g>
</svg>
